<?xml version="1.0" encoding="UTF-8" standalone="no"?>
<!DOCTYPE svg PUBLIC "-//W3C//DTD SVG 1.1//EN" "http://www.w3.org/Graphics/SVG/1.1/DTD/svg11.dtd">
<svg width="100%" height="100%" viewBox="0 0 20 16" version="1.1" xmlns="http://www.w3.org/2000/svg" xmlns:xlink="http://www.w3.org/1999/xlink" xml:space="preserve" xmlns:serif="http://www.serif.com/" style="fill-rule:evenodd;clip-rule:evenodd;stroke-linejoin:round;stroke-miterlimit:2;">
    <g id="onoff">
        <g transform="matrix(0.140915,0,0,0.140915,-40.7122,-4.87215)">
            <path d="M392.143,61.781L397.73,66.088C399.439,67.405 401.892,67.087 403.208,65.379L418.163,45.975C419.48,44.267 419.162,41.814 417.454,40.497L411.866,36.191C410.157,34.874 407.705,35.192 406.388,36.9L391.433,56.304C390.117,58.012 390.434,60.464 392.143,61.781Z" style="fill-rule:nonzero;"/>
        </g>
        <g transform="matrix(0.140915,0,0,0.140915,-36.6467,-4.92884)">
            <path d="M286.292,65.379C287.609,67.087 290.061,67.405 291.769,66.088L297.357,61.781C299.066,60.464 299.383,58.012 298.066,56.304L283.112,36.9C281.795,35.192 279.343,34.874 277.634,36.191L272.046,40.497C270.338,41.814 270.02,44.267 271.337,45.975L286.292,65.379Z" style="fill-rule:nonzero;"/>
        </g>
        <g transform="matrix(0.140915,0,0,0.140915,-38.6868,-4.89368)">
            <path d="M341.027,67.037L348.082,67.037C350.239,67.037 351.987,65.288 351.987,63.131L351.987,38.633C351.987,36.476 350.239,34.728 348.082,34.728L341.027,34.728C338.87,34.728 337.121,36.476 337.121,38.633L337.121,63.131C337.121,65.288 338.87,67.037 341.027,67.037Z" style="fill-rule:nonzero;"/>
        </g>
        <g transform="matrix(0.140915,0,0,0.140915,-40.7122,-4.87215)">
            <path d="M397.73,116.912L392.143,121.219C390.434,122.536 390.117,124.988 391.433,126.697L406.388,146.1C407.705,147.809 410.157,148.126 411.866,146.809L417.454,142.503C419.162,141.186 419.48,138.733 418.163,137.025L403.208,117.622C401.891,115.913 399.439,115.596 397.73,116.912Z" style="fill-rule:nonzero;"/>
        </g>
        <g transform="matrix(0.140915,0,0,0.140915,-36.6467,-4.92884)">
            <path d="M272.046,142.503L277.634,146.809C279.343,148.126 281.795,147.809 283.112,146.1L298.067,126.697C299.383,124.988 299.066,122.536 297.357,121.219L291.77,116.912C290.061,115.596 287.609,115.913 286.292,117.622L271.337,137.025C270.02,138.733 270.338,141.186 272.046,142.503Z" style="fill-rule:nonzero;"/>
        </g>
        <g transform="matrix(0.140915,0,0,0.140915,-38.6868,-4.89368)">
            <path d="M341.027,148.272L348.082,148.272C350.239,148.272 351.987,146.524 351.987,144.367L351.987,119.869C351.987,117.712 350.239,115.964 348.082,115.964L341.027,115.964C338.87,115.964 337.121,117.712 337.121,119.869L337.121,144.367C337.121,146.524 338.87,148.272 341.027,148.272Z" style="fill-rule:nonzero;"/>
        </g>
    </g>
    <g transform="matrix(0.107912,-8.16819e-05,0.000106663,0.140914,0.0311146,-0.0404332)">
        <path d="M182.54,45.192C182.54,41.846 179.824,39.13 176.478,39.13L5.728,39.13C2.383,39.13 -0.333,41.846 -0.333,45.192L-0.333,68.816C-0.333,72.161 2.383,74.878 5.728,74.878L176.478,74.878C179.824,74.878 182.54,72.161 182.54,68.816L182.54,45.192Z"/>
    </g>
</svg>
