<?xml version="1.0" encoding="UTF-8" standalone="no"?>
<!DOCTYPE svg PUBLIC "-//W3C//DTD SVG 1.1//EN" "http://www.w3.org/Graphics/SVG/1.1/DTD/svg11.dtd">
<svg width="100%" height="100%" viewBox="0 0 17 16" version="1.1" xmlns="http://www.w3.org/2000/svg" xmlns:xlink="http://www.w3.org/1999/xlink" xml:space="preserve" xmlns:serif="http://www.serif.com/" style="fill-rule:evenodd;clip-rule:evenodd;stroke-linejoin:round;stroke-miterlimit:2;">
    <g transform="matrix(0.0164271,0,0,0.0164271,-0.164271,-0.220945)">
        <path d="M923.1,718.6L235.4,718.6L383.7,870.1C409.7,896.7 409.7,940 383.7,966.6C357.5,993.2 315.2,993.2 289.2,966.6L37.2,709.2C34.6,706.6 33.5,703.4 31.6,700.5C18.5,688.2 10,671.1 10,651.7C10,614.8 39.8,584.8 76.7,584.8L923.2,584.8C960.1,584.8 990.1,614.8 990.1,651.7C990,688.6 960,718.6 923.1,718.6Z" style="fill-rule:nonzero;"/>
        <path d="M923.1,406.8L76.7,406.8C39.8,406.8 10,376.8 10,339.9C10,303 39.8,273 76.7,273L761.8,273L616.3,127.6C590.1,101.4 590.1,59.1 616.3,33.1C642.3,6.9 684.6,6.9 710.8,33.1L962.8,285.1C964,286.3 964.4,287.9 965.6,289.3C980.1,301.6 990,319.3 990,339.9C990,376.8 960,406.8 923.1,406.8Z" style="fill-rule:nonzero;"/>
    </g>
    <g id="Problem">
        <g transform="matrix(-1.56345,1.56105,-1.03073,-1.03231,31.7908,6.14176)">
            <rect x="4.232" y="9.397" width="7.774" height="2.176" style="fill:white;"/>
        </g>
        <g transform="matrix(-1.85533,1.85249,-0.706564,-0.707649,30.8358,0.316034)">
            <path d="M12.006,10.485C12.006,9.884 11.82,9.397 11.591,9.397L4.647,9.397C4.418,9.397 4.232,9.884 4.232,10.485C4.232,11.085 4.418,11.573 4.647,11.573L11.591,11.573C11.82,11.573 12.006,11.085 12.006,10.485Z"/>
        </g>
    </g>
</svg>
